<svg width="25" height="24" viewBox="0 0 25 24" fill="none" xmlns="http://www.w3.org/2000/svg">
<path d="M17.84 21.5H6.69336C4.46402 21.5 2.64002 19.7 2.64002 17.5V8.5C2.64002 6.3 4.46402 4.5 6.69336 4.5H17.84C20.0694 4.5 21.8934 6.3 21.8934 8.5V17.5C21.8934 19.7 20.0694 21.5 17.84 21.5Z" stroke="#222836" stroke-miterlimit="10"/>
<path d="M2.64002 8.5H21.8934" stroke="#222836" stroke-miterlimit="10"/>
<path d="M8.21336 12H6.18669V14H8.21336V12Z" fill="#222836"/>
<path d="M13.28 12H11.2534V14H13.28V12Z" fill="#222836"/>
<path d="M18.3467 12H16.32V14H18.3467V12Z" fill="#222836"/>
<path d="M8.21336 16H6.18669V18H8.21336V16Z" fill="#222836"/>
<path d="M13.28 16H11.2534V18H13.28V16Z" fill="#222836"/>
<path d="M7.7067 3V6" stroke="#222836" stroke-miterlimit="10"/>
<path d="M16.8267 3V6" stroke="#222836" stroke-miterlimit="10"/>
</svg>
